<?xml version="1.0" encoding="utf-8"?>
<!-- Generator: Adobe Illustrator 24.0.2, SVG Export Plug-In . SVG Version: 6.00 Build 0)  -->
<svg version="1.1" id="Layer_1" xmlns="http://www.w3.org/2000/svg" xmlns:xlink="http://www.w3.org/1999/xlink" x="0px" y="0px"
	 viewBox="0 0 45 45" style="enable-background:new 0 0 45 45;" xml:space="preserve">
<style type="text/css">
	.st0{fill:url(#SVGID_1_);}
	.st1{fill:#FFFFFF;}
</style>
<linearGradient id="SVGID_1_" gradientUnits="userSpaceOnUse" x1="0.6839" y1="-1787.6088" x2="44.3143" y2="-1787.6088" gradientTransform="matrix(1 0 0 1 0 1810)">
	<stop  offset="0.12" style="stop-color:#EB256D"/>
	<stop  offset="0.26" style="stop-color:#EC2A67"/>
	<stop  offset="0.44" style="stop-color:#EF3957"/>
	<stop  offset="0.65" style="stop-color:#F4513D"/>
	<stop  offset="0.87" style="stop-color:#FB7318"/>
	<stop  offset="1" style="stop-color:#FF8A00"/>
</linearGradient>
<circle class="st0" cx="22.5" cy="22.4" r="21.8"/>
<path class="st1" d="M22.5,28.9c3.3,0,5-2,5-5.4v-2.8h-3.2v3.1c0,1.5-0.7,2.1-1.8,2.1c-1.1,0-1.8-0.5-1.8-2.1V12.1
	c0-1.5,0.7-2.1,1.8-2.1c1.1,0,1.8,0.6,1.8,2.1v2.3h3.2v-2.1c0-3.4-1.7-5.4-5-5.4s-5,2-5,5.4v11.2C17.5,27,19.2,28.9,22.5,28.9z"/>
<rect x="17.5" y="32.1" class="st1" width="10.1" height="5.7"/>
</svg>
